<svg width="199" height="114" viewBox="0 0 199 114" fill="none" xmlns="http://www.w3.org/2000/svg">
<path d="M2.952 82V47.008C2.952 44.08 3.672 41.464 5.112 39.16C6.552 36.808 8.52 34.96 11.016 33.616C13.56 32.272 16.44 31.6 19.656 31.6H39.6V43.768H22.032C21.024 43.768 20.184 44.104 19.512 44.776C18.84 45.448 18.504 46.288 18.504 47.296V52.84H37.296V64.72H18.504V82H2.952ZM71.8065 82C68.5905 82 65.7345 81.328 63.2385 79.984C60.7425 78.592 58.7745 76.72 57.3345 74.368C55.8945 71.968 55.1745 69.256 55.1745 66.232V43.768H42.1425V31.6H83.4705V43.768H70.7265V67.024C70.7265 67.792 70.9905 68.464 71.5185 69.04C72.0465 69.568 72.6945 69.832 73.4625 69.832H78.2865V82H71.8065ZM87.6836 82V31.6H110.364C113.964 31.6 117.252 32.392 120.228 33.976C123.204 35.512 125.58 37.672 127.356 40.456C129.132 43.192 130.02 46.384 130.02 50.032C130.02 53.68 129.132 56.92 127.356 59.752C125.58 62.536 123.204 64.72 120.228 66.304C117.252 67.888 113.964 68.68 110.364 68.68H103.236V82H87.6836ZM103.236 56.512H108.708C109.716 56.512 110.628 56.272 111.444 55.792C112.308 55.264 113.004 54.544 113.532 53.632C114.06 52.672 114.324 51.52 114.324 50.176C114.324 48.832 114.06 47.68 113.532 46.72C113.004 45.76 112.308 45.04 111.444 44.56C110.628 44.032 109.716 43.768 108.708 43.768H103.236V56.512Z" fill="#F4F5F7"/>
<path d="M133.311 35.1602C133.311 31.3112 137.478 28.9056 140.811 30.8301L178.311 52.4808C181.644 54.4053 181.644 59.2165 178.311 61.141L140.811 82.7917C137.478 84.7162 133.311 82.3105 133.311 78.4615L133.311 35.1602Z" fill="#007CBC"/>
</svg>
